<svg xmlns="http://www.w3.org/2000/svg" x="0px" y="0px"
width="64" height="64"
viewBox="0 0 172 172"
style=" fill:#000000;"><g fill="none" fill-rule="nonzero" stroke="none" stroke-width="1" stroke-linecap="butt" stroke-linejoin="miter" stroke-miterlimit="10" stroke-dasharray="" stroke-dashoffset="0" font-family="none" font-weight="none" font-size="none" text-anchor="none" style="mix-blend-mode: normal"><path d="M0,172v-172h172v172z" fill="none"></path><g fill="#536dfe"><path d="M33.15742,12.09375c-9.21174,0 -16.70567,7.49427 -16.70567,16.70567c0,9.21208 7.49459,16.70633 16.70633,16.70633c2.38515,0 4.65334,-0.50567 6.7076,-1.41002l-8.07693,-12.61997c-0.40749,-0.6366 -0.34024,-1.46706 0.16534,-2.02875c0.50525,-0.56169 1.32431,-0.71753 1.99988,-0.37924l14.19401,7.09668c1.09684,-2.22323 1.71577,-4.72289 1.71577,-7.36503c0,-9.21174 -7.49459,-16.70567 -16.70633,-16.70567zM37.9032,34.7984l4.88816,7.63733c1.34946,-0.95608 2.5509,-2.10643 3.56409,-3.41121zM49.40775,40.55002c-1.32561,1.82817 -2.9508,3.42455 -4.80417,4.71691l15.77922,24.65532l7.44312,-4.02994c-1.21072,-2.58101 -1.89096,-5.45808 -1.89096,-8.49226c0,-2.76409 0.5618,-5.39916 1.57733,-7.79742zM86.00066,40.69437c-5.78955,0 -10.89952,2.96126 -13.8981,7.44771l15.58238,7.79086c0.01344,0.00672 0.02724,0.01328 0.04068,0.02034l14.02342,7.01204c0.61779,-1.74217 0.95729,-3.61415 0.95729,-5.56528c0,-9.21174 -7.49427,-16.70567 -16.70567,-16.70567zM70.52719,51.1104c-0.79248,1.94273 -1.23287,4.06506 -1.23287,6.28964c0,2.4557 0.53695,4.78673 1.49269,6.88869l12.52942,-6.78371zM87.55437,59.62366l-8.33545,13.03923c2.07374,0.92517 4.36704,1.44348 6.78108,1.44348c6.06703,-0.00034 11.3874,-3.25159 14.31409,-8.10252zM82.03633,62.01721l-9.55847,5.17619c1.06156,1.46166 2.35387,2.74422 3.82326,3.7957zM103.32243,67.50769c-3.48535,5.95013 -9.94323,9.95805 -17.32243,9.95805c-3.07954,0 -5.99882,-0.69944 -8.60905,-1.94476l-6.70891,10.49411l6.69972,10.46787c2.61259,-1.24767 5.53435,-1.9487 8.61759,-1.9487c6.92098,0 13.03471,3.52277 16.64268,8.86888l17.8808,-9.8662c-0.94734,-2.32872 -1.47432,-4.87227 -1.47432,-7.5376c0,-3.41313 0.85925,-6.62747 2.36862,-9.4443zM69.50363,68.8042l-7.30533,3.95514l6.48976,10.13914l5.80214,-9.07687c-1.94273,-1.36592 -3.63308,-3.06528 -4.98657,-5.01741zM139.11421,69.29433c-5.12372,0 -9.71361,2.32064 -12.78072,5.96355l15.12112,7.5599c0.55799,0.27916 0.91565,0.84458 0.92842,1.46842c0.01243,0.62384 -0.32182,1.20382 -0.86806,1.50516l-16.52327,9.1169c2.9633,4.68095 8.18413,7.79808 14.1225,7.79808c9.21174,0 16.70633,-7.49427 16.70633,-16.70567c0,-9.21141 -7.49459,-16.70633 -16.70633,-16.70633zM32.88579,69.38487c-9.21174,0 -16.70633,7.49458 -16.70633,16.70633c-0.00034,9.21141 7.49459,16.70567 16.70633,16.70567c5.21913,0 9.88489,-2.40712 12.95065,-6.1676l-15.44984,-7.4359c-0.56841,-0.27345 -0.93561,-0.84277 -0.95073,-1.47366c-0.01512,-0.63089 0.32424,-1.2163 0.87921,-1.51697l16.68402,-9.03357c-2.96498,-4.67323 -8.18099,-7.7843 -14.11331,-7.7843zM59.23589,74.36292l-7.75609,4.19987c0.94533,2.32637 1.47104,4.86612 1.47104,7.52775c0,3.30059 -0.80594,6.41516 -2.22427,9.16414l7.69441,3.70319l8.27312,-12.94147zM124.42023,78.05692c-1.28261,2.36399 -2.01169,5.06981 -2.01169,7.94308c0,2.0771 0.38394,4.06532 1.07933,5.90122l13.60612,-7.50807zM48.50557,80.17358l-13.70061,7.41818l12.89488,6.20631c1.20568,-2.30789 1.89162,-4.928 1.89162,-7.70688c0,-2.08315 -0.38613,-4.07701 -1.08589,-5.91762zM68.68938,89.13301l-7.21937,11.29262l7.48576,3.60345c1.43177,-2.30016 3.3161,-4.28874 5.52656,-5.84413zM86,97.89363c-2.41673,0 -4.71286,0.52055 -6.78895,1.44807l8.03625,12.55632l12.43756,-6.8631c-3.02411,-4.31344 -8.02902,-7.1413 -13.68486,-7.1413zM76.2939,101.01549c-1.69279,1.21341 -3.14959,2.73284 -4.28976,4.47938l10.3432,4.9787zM59.64728,103.2765l-15.09619,23.61339c2.11372,1.51642 3.92155,3.43041 5.31267,5.63483l17.78894,-9.81567c-1.1012,-2.48191 -1.7184,-5.22438 -1.7184,-8.10974c0.00034,-2.68078 0.53295,-5.23911 1.49138,-7.57959zM101.3278,107.96585l-12.75578,7.03828c-0.06685,0.24087 -0.18785,0.46881 -0.36153,0.66466c-0.43873,0.49551 -1.12092,0.68083 -1.74005,0.49472l-14.25307,7.86435c3.01336,4.39104 8.06599,7.27843 13.78197,7.27843c9.21174,0 16.70633,-7.49393 16.70633,-16.70567c0,-2.35694 -0.49335,-4.59966 -1.37787,-6.63477zM70.45961,108.48091c-0.74948,1.8967 -1.16594,3.95897 -1.16594,6.11905c0,2.29748 0.4671,4.48776 1.30963,6.48189l12.13049,-6.69382zM32.88579,126.49425c-9.21174,0 -16.70633,7.49458 -16.70633,16.70633c0,9.21174 7.49459,16.70567 16.70633,16.70567c9.21174,0 16.70567,-7.49427 16.70567,-16.70567c0,-2.13623 -0.40764,-4.17879 -1.14166,-6.05803l-16.52327,9.11756c-0.25498,0.14076 -0.53416,0.20865 -0.81097,0.20865c-0.45318,0 -0.90011,-0.18311 -1.2263,-0.53081c-0.52541,-0.56068 -0.6035,-1.40666 -0.18962,-2.05368l10.14374,-15.86649c-2.1201,-0.97556 -4.47534,-1.52353 -6.95758,-1.52353zM42.74083,129.72174l-6.65051,10.40356l10.82742,-5.97405c-1.11229,-1.71866 -2.52914,-3.22149 -4.17691,-4.42952z"></path></g></g></svg>