<svg xmlns="http://www.w3.org/2000/svg" x="0px" y="0px"
width="50" height="50"
viewBox="0 0 172 172"
style=" fill:#000000;"><g fill="none" fill-rule="nonzero" stroke="none" stroke-width="1" stroke-linecap="butt" stroke-linejoin="miter" stroke-miterlimit="10" stroke-dasharray="" stroke-dashoffset="0" font-family="none" font-weight="none" font-size="none" text-anchor="none" style="mix-blend-mode: normal"><path d="M0,172v-172h172v172z" fill="none"></path><g fill="#536dfe"><path d="M92.6736,0c-42.07808,0 -67.00432,21.73736 -72.12648,62.86944l-15.8412,27.30672c-2.666,4.7988 -1.02168,10.6296 3.87344,13.3472l11.85768,5.93056v16.80096c0,8.14248 3.40904,15.91688 9.35336,21.33488c5.91336,5.38704 13.58456,7.93952 21.48624,7.21024l7.0004,-0.45064v17.65064h82.56v-23.392c0,-12.37024 3.95256,-24.66136 11.43456,-35.54896c8.26976,-12.02968 12.642,-26.144 12.642,-40.81904c0,-34.92288 -18.97504,-72.24 -72.24,-72.24zM109.36792,72.95208l-16.48792,-16.48792v63.93584h-6.88v-63.93584l-16.48792,16.48792l-4.86416,-4.86416l24.79208,-24.79208l24.79208,24.79208z"></path></g></g></svg>