<svg xmlns="http://www.w3.org/2000/svg" x="0px" y="0px"
width="50" height="50"
viewBox="0 0 172 172"
style=" fill:#000000;"><g fill="none" fill-rule="nonzero" stroke="none" stroke-width="1" stroke-linecap="butt" stroke-linejoin="miter" stroke-miterlimit="10" stroke-dasharray="" stroke-dashoffset="0" font-family="none" font-weight="none" font-size="none" text-anchor="none" style="mix-blend-mode: normal"><path d="M0,172v-172h172v172z" fill="none"></path><g fill="#536dfe"><path d="M151.05094,41.29344l-57.92906,-32.55906c-4.39406,-2.45906 -9.84969,-2.45906 -14.24375,0l-57.92906,32.55906c-4.43438,2.48594 -7.18906,7.14875 -7.18906,12.1475v65.11813c0,4.99875 2.75469,9.66156 7.18906,12.1475l57.92906,32.55906c2.20375,1.23625 4.66281,1.85437 7.12187,1.85437c2.45906,0 4.91813,-0.61812 7.12188,-1.85437l57.92906,-32.55906c4.43438,-2.48594 7.18906,-7.14875 7.18906,-12.1475v-65.11813c0,-4.99875 -2.75469,-9.66156 -7.18906,-12.1475zM86,127.28c-22.76312,0 -41.28,-18.51687 -41.28,-41.28c0,-22.76312 18.51688,-41.28 41.28,-41.28c13.0075,0 25.02063,6.03344 32.82781,16.31313l-15.07688,8.72094c-4.52844,-4.95844 -10.965,-7.83406 -17.75094,-7.83406c-13.27625,0 -24.08,10.80375 -24.08,24.08c0,13.27625 10.80375,24.08 24.08,24.08c6.78594,0 13.2225,-2.87562 17.75094,-7.83406l15.07688,8.72094c-7.80719,10.27969 -19.82031,16.31312 -32.82781,16.31312zM127.28,89.44h-6.88v6.88h-6.88v-6.88h-6.88v-6.88h6.88v-6.88h6.88v6.88h6.88zM151.36,89.44h-6.88v6.88h-6.88v-6.88h-6.88v-6.88h6.88v-6.88h6.88v6.88h6.88z"></path></g></g></svg>