<svg viewBox="0 0 512 512" xml:space="preserve" xmlns="http://www.w3.org/2000/svg" fill-rule="evenodd" clip-rule="evenodd" stroke-linejoin="round" stroke-miterlimit="2"><g display="inline"><path d="M0 437.526a19.044 19.044 0 0 1-13.374 5.537h-61.55c-4.98 0-9.854-2.018-13.373-5.537a19.046 19.046 0 0 1-5.537-13.373c0-5.054 1.967-9.803 5.538-13.374 3.524-3.524 8.398-5.546 13.372-5.546h61.55c4.975 0 9.849 2.022 13.373 5.546a18.787 18.787 0 0 1 5.537 13.374c0 4.98-2.018 9.855-5.536 13.373m-176.32-26.746c3.576 3.576 5.546 8.325 5.546 13.373 0 4.975-2.022 9.849-5.546 13.373a18.793 18.793 0 0 1-13.374 5.537h-61.539a18.79 18.79 0 0 1-13.374-5.537c-3.525-3.524-5.546-8.398-5.546-13.373 0-5.048 1.969-9.797 5.546-13.374 3.577-3.576 8.326-5.546 13.374-5.546h61.539c5.048 0 9.797 1.97 13.374 5.547m88.023-184.484a19.046 19.046 0 0 1-5.537-13.373 18.79 18.79 0 0 1 5.538-13.374c3.524-3.524 8.398-5.546 13.372-5.546h61.55c4.975 0 9.849 2.022 13.373 5.546a18.787 18.787 0 0 1 5.537 13.374c0 4.98-2.018 9.855-5.536 13.373a19.044 19.044 0 0 1-13.374 5.537h-61.55c-4.98 0-9.854-2.018-13.373-5.537m-88.023-26.746c3.576 3.576 5.546 8.325 5.546 13.373 0 4.975-2.022 9.849-5.546 13.373a18.793 18.793 0 0 1-13.374 5.537h-61.539a18.79 18.79 0 0 1-13.374-5.537c-3.525-3.524-5.546-8.398-5.546-13.373 0-5.048 1.969-9.797 5.546-13.374 3.577-3.576 8.326-5.546 13.374-5.546h61.539c5.048 0 9.797 1.97 13.374 5.547m-176.311 211.23a18.787 18.787 0 0 1 5.537 13.373c0 4.98-2.018 9.854-5.538 13.374a18.782 18.782 0 0 1-13.372 5.536h-61.54c-5.06 0-9.813-1.967-13.383-5.536a19.048 19.048 0 0 1-5.537-13.374 18.79 18.79 0 0 1 5.536-13.374c3.526-3.524 8.404-5.546 13.384-5.546h61.54c5.048 0 9.797 1.97 13.373 5.547m88.024-384.034a18.787 18.787 0 0 1-5.546-13.373c0-4.975 2.021-9.849 5.546-13.373a18.785 18.785 0 0 1 13.374-5.537h61.539c5.053 0 9.803 1.966 13.374 5.536 3.524 3.525 5.546 8.399 5.546 13.374 0 5.048-1.97 9.797-5.546 13.373-3.577 3.577-8.327 5.547-13.374 5.547h-61.539c-5.047 0-9.797-1.97-13.374-5.547m251.233 348.487h-15.779v-113.4h15.779c13.066 0 25.35-5.087 34.588-14.324 9.235-9.237 14.322-21.52 14.322-34.586 0-13.066-5.087-25.349-14.323-34.586-9.109-9.11-21.716-14.334-34.587-14.334h-12.52v-36.53c0-8.284-6.715-15-15-15h-167.63v-50.18h18.83c13.06 0 25.343-5.09 34.587-14.333 9.243-9.243 14.333-21.526 14.333-34.587 0-12.872-5.225-25.478-14.333-34.587-9.238-9.237-21.521-14.323-34.587-14.323h-61.539c-13.067 0-25.35 5.086-34.587 14.323-9.109 9.109-14.333 21.715-14.333 34.587 0 13.061 5.09 25.344 14.333 34.586 9.243 9.244 21.526 14.334 34.587 14.334h12.709v50.18h-158.25c-8.285 0-15 6.716-15 15v247.76h-15.77c-13.067 0-25.353 5.09-34.598 14.334-9.235 9.236-14.322 21.52-14.322 34.586 0 13.066 5.087 25.35 14.323 34.587 9.238 9.236 21.524 14.323 34.597 14.323h61.54c13.067 0 25.351-5.087 34.586-14.323 9.237-9.236 14.324-21.52 14.324-34.587 0-13.067-5.087-25.351-14.323-34.586-9.242-9.243-21.525-14.334-34.587-14.334h-15.77v-232.76h143.25v21.53h-12.709c-13.061 0-25.344 5.09-34.587 14.333-9.243 9.242-14.333 21.525-14.333 34.587 0 12.872 5.224 25.478 14.333 34.587 9.237 9.236 21.52 14.323 34.587 14.323h61.539c13.066 0 25.349-5.087 34.587-14.323 9.108-9.109 14.333-21.715 14.333-34.587 0-13.062-5.09-25.345-14.333-34.586-9.244-9.244-21.527-14.334-34.587-14.334h-18.83v-21.53h152.63v21.53h-19.03c-12.872 0-25.478 5.225-34.586 14.333-9.237 9.236-14.324 21.52-14.324 34.587 0 13.067 5.087 25.351 14.323 34.586 9.237 9.237 21.52 14.324 34.587 14.324h15.771v41.7h-161.311c-8.284 0-15 6.716-15 15v56.7h-15.769c-13.061 0-25.344 5.09-34.587 14.333-9.243 9.242-14.333 21.525-14.333 34.587 0 12.872 5.224 25.478 14.333 34.587 9.237 9.236 21.52 14.323 34.587 14.323h61.539c13.066 0 25.349-5.087 34.587-14.323 9.108-9.109 14.333-21.715 14.333-34.587 0-13.062-5.09-25.345-14.333-34.586-9.244-9.244-21.527-14.334-34.587-14.334h-15.77v-41.7h146.311v41.7h-15.771c-12.872 0-25.478 5.225-34.586 14.333-9.237 9.236-14.324 21.52-14.324 34.587 0 13.067 5.087 25.351 14.323 34.586 9.237 9.237 21.52 14.324 34.587 14.324h61.55c13.066 0 25.35-5.087 34.588-14.324 9.235-9.236 14.322-21.52 14.322-34.586 0-13.066-5.087-25.35-14.323-34.586-9.109-9.11-21.716-14.334-34.587-14.334" transform="translate(476.464 37.237)" fill-rule="nonzero" fill="#536dfe" class="fill-000000" data-darkreader-inline-fill="" style="--darkreader-inline-fill:#01189a;"></path></g></svg>