<svg xmlns="http://www.w3.org/2000/svg" x="0px" y="0px"
width="50" height="50"
viewBox="0 0 172 172"
style=" fill:#000000;"><g fill="none" fill-rule="nonzero" stroke="none" stroke-width="1" stroke-linecap="butt" stroke-linejoin="miter" stroke-miterlimit="10" stroke-dasharray="" stroke-dashoffset="0" font-family="none" font-weight="none" font-size="none" text-anchor="none" style="mix-blend-mode: normal"><path d="M0,172v-172h172v172z" fill="none"></path><g fill="#536dfe"><path d="M96.965,0c9.46,21.88969 -33.91625,35.40781 -37.9475,53.6425c-3.69531,16.75656 25.77313,36.2275 25.8,36.2275c-4.47469,-6.93375 -7.76687,-12.64469 -12.255,-23.435c-7.59219,-18.24812 46.23844,-34.76281 24.4025,-66.435zM125.775,30.315c0,0 -38.055,2.44563 -39.99,26.7675c-0.86,10.83063 10.01094,16.52813 10.32,24.4025c0.25531,6.43656 -6.45,11.825 -6.45,11.825c0,0 12.20125,-2.32469 16.0175,-12.1475c4.23281,-10.89781 -8.25062,-18.26156 -6.9875,-26.9825c1.20938,-8.34469 27.09,-23.865 27.09,-23.865zM66.005,86.5375c0,0 -34.83,-0.49719 -34.83,9.3525c0,10.29313 45.59344,11.05906 78.1525,4.73c0,0 8.65375,-5.95281 10.965,-8.17c-21.33875,4.35375 -69.9825,4.8375 -69.9825,1.075c0,-3.46687 15.695,-6.9875 15.695,-6.9875zM132.9775,86.5375c-3.41312,0.26875 -7.095,1.58563 -10.4275,3.9775c7.8475,-1.69312 14.5125,3.17125 14.5125,8.7075c0,12.47 -18.06,24.1875 -18.06,24.1875c0,0 27.95,-3.17125 27.95,-23.65c0,-9.29875 -6.46344,-13.81375 -13.975,-13.2225zM57.62,105.6725c-5.34812,0 -13.33,4.1925 -13.33,8.17c0,7.99531 40.205,14.14969 69.9825,2.4725l-10.32,-6.3425c-20.18312,6.46344 -57.35125,4.35375 -46.3325,-4.3zM62.565,123.625c-7.32344,0 -12.1475,4.42094 -12.1475,7.74c0,10.26625 43.73906,11.30094 61.06,0.86l-10.965,-6.9875c-12.94031,5.46906 -45.41875,6.30219 -37.9475,-1.6125zM38.1625,132.87c-11.9325,-0.24187 -19.6725,5.11969 -19.6725,9.5675c0,23.65 122.12,22.56156 122.12,-1.6125c0,-4.01781 -4.63594,-5.96625 -6.3425,-6.88c9.98406,23.1125 -99.975,21.27156 -99.975,7.6325c0,-3.10406 8.08938,-6.07375 15.5875,-4.6225l-6.3425,-3.655c-1.86781,-0.28219 -3.66844,-0.38969 -5.375,-0.43zM153.51,148.78c-18.57062,17.60313 -65.62875,23.98594 -112.9825,13.115c47.34031,19.37688 112.75406,8.50594 112.9825,-13.115z"></path></g></g></svg>