<svg xmlns="http://www.w3.org/2000/svg" x="0px" y="0px"
width="50" height="50"
viewBox="0 0 172 172"
style=" fill:#000000;"><g fill="none" fill-rule="nonzero" stroke="none" stroke-width="1" stroke-linecap="butt" stroke-linejoin="miter" stroke-miterlimit="10" stroke-dasharray="" stroke-dashoffset="0" font-family="none" font-weight="none" font-size="none" text-anchor="none" style="mix-blend-mode: normal"><path d="M0,172v-172h172v172z" fill="none"></path><g fill="#536dfe"><path d="M84.28,6.88c-29.92531,0 -36.12,15.45313 -36.12,24.4025v16.8775h34.4v3.44h-51.2775c-11.35469,0 -24.4025,8.94938 -24.4025,34.4c0,25.45063 13.04781,34.4 24.4025,34.4h20.3175v-20.64c0,-7.56531 6.19469,-13.76 13.76,-13.76h41.28c5.84531,0 10.32,-4.47469 10.32,-10.32v-44.3975c0,-12.04 -11.35469,-24.4025 -32.68,-24.4025zM68.8,24.08c3.78938,0 6.88,3.09063 6.88,6.88c0,3.78938 -3.09062,6.88 -6.88,6.88c-3.78937,0 -6.88,-3.09062 -6.88,-6.88c0,-3.78937 3.09063,-6.88 6.88,-6.88zM120.4,51.6v24.08c0,7.56531 -6.19469,13.76 -13.76,13.76h-41.28c-5.84531,0 -10.32,4.47469 -10.32,10.32v40.9575c0,12.04 11.35469,24.4025 32.68,24.4025c29.92531,0 36.12,-15.45312 36.12,-24.4025v-16.8775h-34.4v-3.44h51.2775c11.35469,0 24.4025,-8.94937 24.4025,-34.4c0,-25.45062 -13.04781,-34.4 -24.4025,-34.4zM103.2,134.16c3.78938,0 6.88,3.09063 6.88,6.88c0,3.78938 -3.09062,6.88 -6.88,6.88c-3.78937,0 -6.88,-3.09062 -6.88,-6.88c0,-3.78937 3.09063,-6.88 6.88,-6.88z"></path></g></g></svg>